<svg xmlns="http://www.w3.org/2000/svg" viewBox="0 0 512 512" width="512" height="512">
  <defs>
    <linearGradient id="bg" x1="0" y1="0" x2="1" y2="1">
      <stop offset="0" stop-color="#9a8cff"/><stop offset="0.5" stop-color="#6f5cff"/><stop offset="1" stop-color="#2a1f5c"/>
    </linearGradient>
    <linearGradient id="fire" x1="0" y1="0" x2="0" y2="1">
      <stop offset="0" stop-color="#ffd27a"/><stop offset="0.5" stop-color="#ff8a3d"/><stop offset="1" stop-color="#ff5e5e"/>
    </linearGradient>
    <linearGradient id="hi" x1="0" y1="0" x2="0" y2="1">
      <stop offset="0" stop-color="#ffffff" stop-opacity="0.22"/><stop offset="0.4" stop-color="#ffffff" stop-opacity="0"/>
    </linearGradient>
  </defs>
  <rect width="512" height="512" rx="116" fill="url(#bg)"/>
  <rect width="512" height="512" rx="116" fill="url(#hi)"/>
  <!-- PP monogram, bold geometric -->
  <g fill="#ffffff">
    <path d="M132 138 h74 a62 62 0 0 1 0 124 h-40 v50 h-34 z m34 34 v56 h40 a28 28 0 0 0 0-56 z"/>
    <path d="M252 138 h74 a62 62 0 0 1 0 124 h-40 v50 h-34 z m34 34 v56 h40 a28 28 0 0 0 0-56 z"/>
  </g>
  <!-- fire streak underline: the hero metaphor -->
  <rect x="132" y="352" width="228" height="14" rx="7" fill="url(#fire)"/>
</svg>
